<svg width="23" height="23" viewBox="0 0 23 23" fill="none" xmlns="http://www.w3.org/2000/svg">
<path d="M21.0833 10.0625V11.5C21.0833 16.0176 21.0833 18.2764 19.6793 19.6794C18.2773 21.0833 16.0175 21.0833 11.5 21.0833C6.98238 21.0833 4.72358 21.0833 3.31963 19.6794C1.91663 18.2773 1.91663 16.0176 1.91663 11.5C1.91663 6.98242 1.91663 4.72363 3.31963 3.31967C4.72454 1.91667 6.98238 1.91667 11.5 1.91667H12.9375" stroke="#1AFFC8" stroke-width="1.5" stroke-linecap="round"/>
<path d="M18.2083 7.66667C19.7961 7.66667 21.0833 6.37949 21.0833 4.79167C21.0833 3.20385 19.7961 1.91667 18.2083 1.91667C16.6204 1.91667 15.3333 3.20385 15.3333 4.79167C15.3333 6.37949 16.6204 7.66667 18.2083 7.66667Z" stroke="#1AFFC8" stroke-width="1.5"/>
<path d="M6.70825 13.4167H15.3333M6.70825 16.7708H12.4583" stroke="#1AFFC8" stroke-width="1.5" stroke-linecap="round"/>
</svg>
