<svg width="23" height="23" viewBox="0 0 23 23" fill="none" xmlns="http://www.w3.org/2000/svg">
<path d="M21.0833 10.0625V11.5C21.0833 16.0176 21.0833 18.2764 19.6794 19.6794C18.2773 21.0833 16.0176 21.0833 11.5 21.0833C6.98242 21.0833 4.72363 21.0833 3.31967 19.6794C1.91667 18.2773 1.91667 16.0176 1.91667 11.5C1.91667 6.98241 1.91667 4.72361 3.31967 3.31966C4.72459 1.91666 6.98242 1.91666 11.5 1.91666H12.9375" stroke="white" stroke-width="1.5" stroke-linecap="round"/>
<path d="M18.2083 7.66666C19.7962 7.66666 21.0833 6.37948 21.0833 4.79166C21.0833 3.20384 19.7962 1.91666 18.2083 1.91666C16.6205 1.91666 15.3333 3.20384 15.3333 4.79166C15.3333 6.37948 16.6205 7.66666 18.2083 7.66666Z" stroke="white" stroke-width="1.5"/>
<path d="M6.70834 13.4167H15.3333M6.70834 16.7708H12.4583" stroke="white" stroke-width="1.5" stroke-linecap="round"/>
</svg>
