<svg width="23" height="23" viewBox="0 0 23 23" fill="none" xmlns="http://www.w3.org/2000/svg">
<path d="M1.91663 11.6955C1.91663 9.50187 1.91663 8.40553 2.41496 7.49703C2.91138 6.58757 3.82083 6.02407 5.63879 4.89516L7.55546 3.70586C9.47692 2.51274 10.4381 1.91666 11.5 1.91666C12.5618 1.91666 13.522 2.51274 15.4445 3.70586L17.3611 4.89516C19.1791 6.02407 20.0885 6.58757 20.5859 7.49703C21.0833 8.40553 21.0833 9.50186 21.0833 11.6945V13.1531C21.0833 16.8906 21.0833 18.7603 19.9601 19.9218C18.8379 21.0833 17.0305 21.0833 13.4166 21.0833H9.58329C5.96942 21.0833 4.162 21.0833 3.03979 19.9218C1.91663 18.7603 1.91663 16.8916 1.91663 13.1531V11.6955Z" stroke="#1AFFC8" stroke-width="1.5"/>
<path d="M11.5 14.375V17.25" stroke="#1AFFC8" stroke-width="1.5" stroke-linecap="round"/>
</svg>
