<svg width="23" height="23" viewBox="0 0 23 23" fill="none" xmlns="http://www.w3.org/2000/svg">
<path d="M20.7087 12.9969L20.9291 10.6624C21.1016 8.83009 21.1878 7.91296 20.8735 7.53442C20.7945 7.43573 20.6966 7.35379 20.5855 7.2934C20.4744 7.23301 20.3524 7.19538 20.2266 7.18271C19.7705 7.14246 19.1983 7.79413 18.0531 9.09746C17.4609 9.77213 17.1647 10.1085 16.8351 10.1612C16.6509 10.1899 16.4625 10.1597 16.2965 10.075C15.9908 9.92163 15.7886 9.50475 15.3813 8.67196L13.2375 4.27896C12.4689 2.70442 12.0846 1.91667 11.5 1.91667C10.9155 1.91667 10.5312 2.70442 9.76258 4.27896L7.61879 8.67196C7.21245 9.50571 7.00929 9.92163 6.70358 10.075C6.53758 10.1596 6.34912 10.1898 6.16499 10.1612C5.83533 10.1085 5.5392 9.77213 4.94695 9.09746C3.80174 7.79413 3.22962 7.14246 2.77345 7.18271C2.64766 7.19538 2.52566 7.23301 2.41458 7.2934C2.30351 7.35379 2.2056 7.43573 2.12658 7.53442C1.8132 7.91296 1.89945 8.83009 2.07195 10.6624L2.29141 12.9969C2.65366 16.8418 2.83383 18.7651 3.96849 19.9238C5.10029 21.0833 6.79845 21.0833 10.1967 21.0833H12.8024C16.1997 21.0833 17.8979 21.0833 19.0316 19.9238C20.1653 18.7642 20.3464 16.8418 20.7087 12.9969Z" stroke="#1AFFC8" stroke-width="1.5"/>
<path d="M10.6816 12.0012C11.0458 11.3476 11.2279 11.0208 11.5 11.0208C11.7722 11.0208 11.9543 11.3467 12.3184 12.0012L12.4124 12.1699C12.5159 12.3558 12.5676 12.4478 12.6481 12.5091C12.7296 12.5705 12.8302 12.5935 13.0314 12.6385L13.2135 12.6807C13.9208 12.8407 14.2744 12.9203 14.3587 13.1905C14.4431 13.4617 14.2016 13.7435 13.7195 14.307L13.5949 14.4526C13.4579 14.6127 13.3889 14.6922 13.3582 14.7919C13.3276 14.8915 13.3381 14.9979 13.3582 15.2116L13.3774 15.4062C13.4502 16.1585 13.4866 16.5351 13.2672 16.7018C13.0468 16.8686 12.7152 16.7162 12.053 16.4115L11.8824 16.3329C11.6936 16.2466 11.5997 16.2025 11.5 16.2025C11.4004 16.2025 11.3064 16.2466 11.1176 16.3329L10.9471 16.4115C10.2849 16.7172 9.95327 16.8686 9.73286 16.7018C9.51244 16.5351 9.54982 16.1585 9.62265 15.4062L9.64182 15.2116C9.66194 14.9979 9.67248 14.8915 9.64182 14.7919C9.61115 14.6932 9.54215 14.6127 9.40511 14.4526L9.28052 14.307C8.79848 13.7435 8.55698 13.4617 8.64132 13.1905C8.72565 12.9203 9.07927 12.8407 9.78652 12.6807L9.96861 12.6385C10.1699 12.5935 10.2705 12.5714 10.3519 12.5091C10.4324 12.4478 10.4842 12.3558 10.5877 12.1699L10.6816 12.0012Z" stroke="#1AFFC8" stroke-width="1.5"/>
</svg>
