<svg width="23" height="23" viewBox="0 0 23 23" fill="none" xmlns="http://www.w3.org/2000/svg">
<path d="M20.7086 12.9969L20.929 10.6624C21.1015 8.83007 21.1878 7.91295 20.8735 7.53441C20.7944 7.43571 20.6965 7.35377 20.5854 7.29338C20.4744 7.23299 20.3524 7.19536 20.2266 7.1827C19.7704 7.14245 19.1983 7.79411 18.0531 9.09745C17.4608 9.77211 17.1647 10.1085 16.835 10.1612C16.6509 10.1899 16.4624 10.1597 16.2965 10.0749C15.9907 9.92161 15.7885 9.50474 15.3812 8.67195L13.2375 4.27895C12.4689 2.70441 12.0846 1.91666 11.5 1.91666C10.9154 1.91666 10.5311 2.70441 9.76254 4.27895L7.61875 8.67195C7.21241 9.5057 7.00925 9.92161 6.70354 10.0749C6.53754 10.1596 6.34909 10.1898 6.16496 10.1612C5.83529 10.1085 5.53916 9.77211 4.94691 9.09745C3.80171 7.79411 3.22958 7.14245 2.77341 7.1827C2.64762 7.19536 2.52562 7.23299 2.41454 7.29338C2.30347 7.35377 2.20556 7.43571 2.12654 7.53441C1.81316 7.91295 1.89941 8.83007 2.07191 10.6624L2.29137 12.9969C2.65362 16.8417 2.83379 18.7651 3.96846 19.9237C5.10025 21.0833 6.79841 21.0833 10.1967 21.0833H12.8024C16.1997 21.0833 17.8978 21.0833 19.0315 19.9237C20.1652 18.7642 20.3464 16.8417 20.7086 12.9969Z" stroke="white" stroke-width="1.5"/>
<path d="M10.6816 12.0012C11.0457 11.3476 11.2278 11.0208 11.5 11.0208C11.7722 11.0208 11.9542 11.3466 12.3184 12.0012L12.4123 12.1699C12.5158 12.3558 12.5676 12.4478 12.6481 12.5091C12.7295 12.5704 12.8302 12.5934 13.0314 12.6385L13.2135 12.6806C13.9207 12.8407 14.2744 12.9202 14.3587 13.1905C14.443 13.4617 14.2015 13.7434 13.7195 14.3069L13.5949 14.4526C13.4579 14.6126 13.3889 14.6922 13.3582 14.7919C13.3275 14.8915 13.3381 14.9979 13.3582 15.2116L13.3774 15.4061C13.4502 16.1584 13.4866 16.5351 13.2672 16.7018C13.0467 16.8686 12.7152 16.7162 12.053 16.4114L11.8824 16.3329C11.6936 16.2466 11.5997 16.2025 11.5 16.2025C11.4003 16.2025 11.3064 16.2466 11.1176 16.3329L10.947 16.4114C10.2848 16.7171 9.95324 16.8686 9.73283 16.7018C9.51241 16.5351 9.54979 16.1584 9.62262 15.4061L9.64179 15.2116C9.66191 14.9979 9.67245 14.8915 9.64179 14.7919C9.61112 14.6931 9.54212 14.6126 9.40508 14.4526L9.28049 14.3069C8.79845 13.7434 8.55695 13.4617 8.64129 13.1905C8.72562 12.9202 9.07924 12.8407 9.78649 12.6806L9.96858 12.6385C10.1698 12.5934 10.2705 12.5714 10.3519 12.5091C10.4324 12.4478 10.4842 12.3558 10.5877 12.1699L10.6816 12.0012Z" stroke="white" stroke-width="1.5"/>
</svg>
