<svg width="30" height="30" viewBox="0 0 30 30" fill="none" xmlns="http://www.w3.org/2000/svg">
<path d="M15.0988 2.81251C9.10625 2.81251 4.18125 7.39126 3.70125 13.2288H2.5C2.31414 13.2287 2.13245 13.2838 1.978 13.3872C1.82356 13.4906 1.70333 13.6376 1.6326 13.8095C1.56187 13.9814 1.54382 14.1704 1.58075 14.3525C1.61768 14.5347 1.70791 14.7018 1.84 14.8325L3.94 16.915C4.11557 17.0891 4.35278 17.1867 4.6 17.1867C4.84722 17.1867 5.08443 17.0891 5.26 16.915L7.36 14.8325C7.49208 14.7018 7.58232 14.5347 7.61925 14.3525C7.65618 14.1704 7.63813 13.9814 7.5674 13.8095C7.49666 13.6376 7.37644 13.4906 7.222 13.3872C7.06755 13.2838 6.88586 13.2287 6.7 13.2288H5.58375C6.05875 8.44001 10.1313 4.68751 15.0988 4.68751C16.7366 4.68412 18.3479 5.101 19.7785 5.89828C21.2092 6.69557 22.4113 7.8466 23.27 9.24126C23.3328 9.34947 23.4167 9.44401 23.5167 9.5193C23.6166 9.59458 23.7306 9.6491 23.852 9.67963C23.9733 9.71016 24.0996 9.71608 24.2233 9.69706C24.3469 9.67803 24.4655 9.63443 24.5721 9.56884C24.6787 9.50325 24.771 9.41699 24.8437 9.31514C24.9164 9.21329 24.968 9.09792 24.9954 8.97583C25.0228 8.85373 25.0255 8.72738 25.0034 8.60423C24.9812 8.48108 24.9345 8.36362 24.8662 8.25876C23.8399 6.59162 22.4032 5.21554 20.6934 4.26203C18.9835 3.30852 17.0565 2.80945 15.0988 2.81251ZM26.0512 13.0838C25.8758 12.9105 25.6391 12.8133 25.3925 12.8133C25.1459 12.8133 24.9092 12.9105 24.7337 13.0838L22.625 15.1663C22.4926 15.2969 22.402 15.4639 22.3647 15.6462C22.3275 15.8284 22.3454 16.0176 22.416 16.1897C22.4866 16.3618 22.6069 16.509 22.7614 16.6126C22.9159 16.7161 23.0977 16.7714 23.2837 16.7713H24.4075C23.93 21.5588 19.8438 25.3125 14.8525 25.3125C13.2095 25.3171 11.5928 24.9009 10.1563 24.1035C8.71977 23.3062 7.51138 22.1543 6.64625 20.7575C6.58157 20.6527 6.49689 20.5617 6.39702 20.4896C6.29716 20.4175 6.18408 20.3658 6.06423 20.3374C5.94439 20.309 5.82013 20.3045 5.69854 20.3242C5.57696 20.3438 5.46044 20.3872 5.35562 20.4519C5.14395 20.5825 4.99283 20.7919 4.93551 21.0339C4.8782 21.2759 4.91938 21.5308 5.05 21.7425C6.08318 23.4114 7.52646 24.7881 9.24237 25.7412C10.9583 26.6943 12.8896 27.1922 14.8525 27.1875C20.8625 27.1875 25.8087 22.6125 26.29 16.7713H27.5C27.686 16.7714 27.8678 16.7161 28.0224 16.6126C28.1769 16.509 28.2971 16.3618 28.3677 16.1897C28.4384 16.0176 28.4562 15.8284 28.419 15.6462C28.3818 15.4639 28.2912 15.2969 28.1587 15.1663L26.0512 13.0838Z" fill="#0D1916"/>
</svg>
