<svg width="14" height="14" viewBox="0 0 14 14" fill="none" xmlns="http://www.w3.org/2000/svg">
<g clip-path="url(#clip0_1_1115)">
<path fill-rule="evenodd" clip-rule="evenodd" d="M9.88539 3.2774C10.8304 3.2774 11.8321 3.7975 12.5454 4.697C10.2074 5.9927 10.5875 9.3688 12.95 10.2711C12.6245 10.9991 12.4691 11.3246 12.0505 11.9693C11.466 12.8681 10.6435 13.9881 9.62219 13.9979C8.71569 14.0063 8.48259 13.4008 7.25199 13.4078C6.02139 13.4148 5.76449 14.0084 4.85799 14C3.83739 13.9902 3.0569 12.9794 2.4724 12.0799C0.838595 9.5655 0.667795 6.615 1.6758 5.047C2.3919 3.9312 3.52099 3.2781 4.58359 3.2781C5.66509 3.2781 6.34479 3.878 7.23939 3.878C8.10739 3.878 8.63519 3.2774 9.88539 3.2774ZM9.61099 0C9.73699 0.8505 9.39119 1.6835 8.93689 2.2729C8.45039 2.9043 7.61249 3.3936 6.80189 3.3684C6.65489 2.5543 7.03429 1.7164 7.49489 1.1515C8.00099 0.5285 8.86899 0.0518 9.61099 0Z" fill="black"/>
</g>
<defs>
<clipPath id="clip0_1_1115">
<rect width="14" height="14" fill="white"/>
</clipPath>
</defs>
</svg>
