<svg width="18" height="18" viewBox="0 0 18 18" fill="none" xmlns="http://www.w3.org/2000/svg">
<g clip-path="url(#clip0_1_1113)">
<path d="M18 9.22497C18 11.2356 17.4276 13.0437 16.2828 14.6493C15.1389 16.2549 13.6602 17.3655 11.8476 17.982C11.637 18.0225 11.4822 17.9946 11.385 17.8983C11.337 17.8516 11.2993 17.7956 11.274 17.7336C11.2488 17.6717 11.2366 17.6052 11.2383 17.5383V15.003C11.2383 14.2263 11.0349 13.6575 10.629 13.2975C11.0345 13.2568 11.4362 13.1846 11.8305 13.0815C12.1851 12.9852 12.5523 12.8295 12.9312 12.6135C13.2955 12.4096 13.6177 12.1384 13.8807 11.8143C14.1345 11.4975 14.3415 11.0772 14.5017 10.5525C14.6619 10.0278 14.742 9.42567 14.742 8.74527C14.742 7.77597 14.4333 6.95068 13.8168 6.27028C14.1048 5.54128 14.0742 4.72498 13.7223 3.81957C13.5036 3.74757 13.1877 3.79257 12.7737 3.95187C12.3982 4.09294 12.0371 4.26986 11.6955 4.48018L11.25 4.76817C10.5183 4.55956 9.76088 4.45474 9 4.45678C8.23908 4.45503 7.48168 4.56016 6.75 4.76907C6.58723 4.65634 6.42126 4.5483 6.2523 4.44508C6.0453 4.31638 5.7186 4.16248 5.2731 3.98248C4.8285 3.80248 4.4919 3.74847 4.2651 3.82047C3.9222 4.72497 3.8943 5.54128 4.1841 6.27028C3.5667 6.95068 3.2571 7.77597 3.2571 8.74527C3.2571 9.42567 3.3381 10.026 3.4983 10.5471C3.6585 11.0673 3.8637 11.4876 4.113 11.808C4.37151 12.1355 4.69201 12.4089 5.0562 12.6126C5.4351 12.8286 5.8032 12.9852 6.1578 13.0806C6.5133 13.1778 6.9138 13.2498 7.3593 13.2975C7.047 13.5855 6.8553 13.9986 6.7851 14.535C6.6173 14.6163 6.44019 14.6767 6.2577 14.715C6.03779 14.7581 5.81399 14.7783 5.5899 14.7753C5.3316 14.7753 5.0769 14.6889 4.8222 14.517C4.5684 14.3442 4.3515 14.094 4.1715 13.7664C4.03089 13.5186 3.8369 13.3053 3.6036 13.1418C3.3732 12.9816 3.1797 12.8853 3.0231 12.8538L2.7891 12.8178C2.6253 12.8178 2.5119 12.8358 2.4489 12.8718C2.3859 12.9078 2.3679 12.9528 2.3904 13.0095C2.41687 13.0705 2.45237 13.1273 2.4957 13.1778C2.54066 13.2318 2.59204 13.2802 2.6487 13.3218L2.7297 13.3812C2.9025 13.4622 3.0717 13.6143 3.24 13.8384C3.4083 14.0625 3.5316 14.2668 3.609 14.4504L3.726 14.7267C3.8277 15.0309 3.9996 15.2775 4.2426 15.4656C4.4847 15.6546 4.7466 15.7743 5.0274 15.8256C5.3082 15.8778 5.58 15.9066 5.8419 15.9102C6.1029 15.9138 6.3207 15.9003 6.4926 15.8679L6.7617 15.8202C6.7617 16.1244 6.7635 16.4808 6.768 16.8894L6.7734 17.5374C6.7734 17.6814 6.723 17.802 6.6204 17.8974C6.5196 17.9946 6.363 18.0225 6.1524 17.982C4.3398 17.3655 2.8611 16.254 1.7172 14.6493C0.5724 13.0437 0 11.2356 0 9.22497C0 7.55097 0.4023 6.00838 1.2069 4.59447C1.98583 3.20771 3.11557 2.05004 4.4829 1.23747C5.84595 0.416956 7.40908 -0.0112792 9 -2.53877e-05C10.5912 -0.0114452 12.1547 0.416796 13.518 1.23747C14.885 2.05017 16.0144 3.20783 16.7931 4.59447C17.5977 6.00747 18 7.55187 18 9.22497Z" fill="white"/>
</g>
<defs>
<clipPath id="clip0_1_1113">
<rect width="18" height="18" fill="white"/>
</clipPath>
</defs>
</svg>
