<svg width="199" height="35" viewBox="0 0 199 35" fill="none" xmlns="http://www.w3.org/2000/svg">
<path d="M16.56 34.6C11.76 34.6 7.8 32.88 5 29.92C2.2 26.92 0.6 22.68 0.6 17.72C0.6 16.56 0.68 15.44 0.84 14.4C1.56 9.92 3.68 6.28 6.88 3.88C9.48 1.96 12.76 0.839999 16.52 0.839999H16.56C18.92 0.839999 20.84 1.24 22.68 2.12L17.72 12.28L17.84 12.32C20.44 9.92 23.72 6.96 26.32 4.56C27.28 5.44 28.08 6.52 28.8 7.68H34.2V6C34.2 4.2 34.2 2.4 34.2 0.599998H48.2V7.56C48.2 13.2 48.2 18.8 48.2 24.4V35H34.2V28.68H28.2C27.76 29.28 27.28 29.84 26.8 30.36C24.24 33.04 20.76 34.6 16.56 34.6ZM14.4 18.12C14.4 19.84 14.6 21.12 14.96 22.08C15.4 23.16 16.08 23.72 16.96 23.72C17.88 23.72 18.56 23.12 19 21.92C19.36 21 19.52 19.76 19.52 18.12C19.52 14.84 18.8 13.04 17.56 12.6C17.48 12.56 17.24 12.52 17.16 12.52H17C15.36 12.52 14.4 14.36 14.4 18.12ZM31 21.48H34.2V18.32C34.2 17.44 34.2 16.52 34.2 14.88H31.16C31.28 15.8 31.32 16.76 31.32 17.72C31.32 19.04 31.2 20.28 31 21.48ZM83.4 23.6V17C83.4 13.44 83.4 9.92 83.4 6.36V0.599998H98.2V9.4C98.2 14.16 98.2 18.84 98.2 23.6H83.4ZM51.4 10.24V1.2H81C79.68 7.8 78.32 14.4 77 21H58.96C59.36 19.96 59.76 19 60.2 18C60.76 16.44 61.36 14.88 61.96 13.32C62.36 12.32 62.76 11.32 63.2 10.28C63.2 10.24 63.2 10.24 63.16 10.24H51.4ZM54.12 35L59.48 28.08C61 26.12 62.56 24.16 64.04 22.2H80.92L78.96 23.76C78.44 24.16 77.96 24.56 77.44 25C77.4 25.04 77.36 25.08 77.4 25.08H92.8L96.28 29.4C97.8 31.28 99.28 33.12 100.8 35H82.72L81.6 33.2C81.28 32.64 80.88 32 80.52 31.44C79.68 30 78.88 28.68 78.72 28.44C78.68 28.4 78.68 28.32 78.64 28.32H76.28C76.24 28.32 76.2 28.36 76.16 28.44C75.48 29.52 74.84 30.64 74.16 31.72C73.52 32.84 72.88 33.92 72.2 35H54.12ZM101.2 33.2V23.64C101.2 20.64 101.2 17.68 101.2 14.68L110.68 12.16C110.92 12.12 110.92 12.08 110.92 12H101.2V1.4H123.96V12H118.96C117.28 12 115.6 12 113.96 12V17.48C113.96 19.36 113.96 21.2 113.96 23.08C113.96 23.12 113.96 23.12 114 23.12H124.8L123.88 33.2H112.76H101.2ZM123.08 21.68V13.08H126.36C126.4 13.08 126.4 13.08 126.4 13.04V0.599998H135.6V16.96C135.6 22.96 135.6 28.96 135.6 35H126.4V27.8C126.4 25.8 126.4 23.76 126.4 21.72C126.4 21.68 126.4 21.68 126.36 21.68H123.08ZM137.2 35V20.88C137.2 14.12 137.2 7.36 137.2 0.599998H148.6V10.64C148.6 18.76 148.6 26.88 148.6 35H137.2ZM183.4 35V25.12C183.4 19.84 183.4 14.52 183.4 9.2V0.599998H198.2V13.76C198.2 20.84 198.2 27.92 198.2 35H183.4ZM150.8 17.12C150.8 15.96 150.88 14.8 151.04 13.76C151.76 9.24 153.88 5.56 157.08 3.12C159.68 1.16 162.96 0.0399976 166.72 0.0399976H166.76C169.2 0.0399976 171.44 0.479999 173.44 1.36L167.76 11.92C167.68 11.88 167.4 11.84 167.32 11.84H167.2C165.56 11.84 164.6 13.68 164.6 17.52C164.6 19.24 164.8 20.56 165.16 21.52C165.6 22.64 166.28 23.2 167.16 23.2C168.08 23.2 168.76 22.6 169.2 21.36C169.56 20.44 169.72 19.16 169.72 17.52C169.72 14.2 169 12.36 167.76 11.92L177.32 3.8C180.72 6.84 182.72 11.52 182.72 17.12C182.72 22.4 180.96 26.88 177.84 29.92C175.08 32.6 171.28 34.2 166.76 34.2C161.96 34.2 158 32.44 155.2 29.44C152.4 26.44 150.8 22.12 150.8 17.12Z" fill="#0D1916"/>
</svg>
